<svg width="101" height="44" viewBox="0 0 101 44" fill="none" xmlns="http://www.w3.org/2000/svg">
<path d="M27.5 44C19.8611 44 13.3681 41.8611 8.02083 37.5833C2.67361 33.3056 0 28.1111 0 22C0 15.8889 2.67361 10.6944 8.02083 6.41667C13.3681 2.13889 19.8611 0 27.5 0H73.3333C80.9722 0 87.4653 2.13889 92.8125 6.41667C98.1597 10.6944 100.833 15.8889 100.833 22C100.833 28.1111 98.1597 33.3056 92.8125 37.5833C87.4653 41.8611 80.9722 44 73.3333 44H27.5ZM27.5 36.6667H73.3333C78.375 36.6667 82.691 35.2306 86.2812 32.3583C89.8715 29.4861 91.6667 26.0333 91.6667 22C91.6667 17.9667 89.8715 14.5139 86.2812 11.6417C82.691 8.76945 78.375 7.33333 73.3333 7.33333H27.5C22.4583 7.33333 18.1424 8.76945 14.5521 11.6417C10.9618 14.5139 9.16667 17.9667 9.16667 22C9.16667 26.0333 10.9618 29.4861 14.5521 32.3583C18.1424 35.2306 22.4583 36.6667 27.5 36.6667ZM37.2396 29.7917C39.9132 27.6528 41.25 25.0556 41.25 22C41.25 18.9444 39.9132 16.3472 37.2396 14.2083C34.566 12.0694 31.3194 11 27.5 11C23.6806 11 20.434 12.0694 17.7604 14.2083C15.0868 16.3472 13.75 18.9444 13.75 22C13.75 25.0556 15.0868 27.6528 17.7604 29.7917C20.434 31.9306 23.6806 33 27.5 33C31.3194 33 34.566 31.9306 37.2396 29.7917Z" fill="#2F1212"/>
</svg>
