<svg width="53" height="16" viewBox="0 0 53 16" fill="none" xmlns="http://www.w3.org/2000/svg">
<path d="M6.58333 15.5C4.77292 15.5 3.22309 14.7411 1.93385 13.2234C0.644618 11.7057 0 9.88125 0 7.75C0 5.61875 0.644618 3.79427 1.93385 2.27656C3.22309 0.758854 4.77292 0 6.58333 0C8.39375 0 9.94358 0.758854 11.2328 2.27656C12.522 3.79427 13.1667 5.61875 13.1667 7.75C13.1667 9.88125 12.522 11.7057 11.2328 13.2234C9.94358 14.7411 8.39375 15.5 6.58333 15.5ZM26.3333 15.5C24.5229 15.5 22.9731 14.7411 21.6839 13.2234C20.3946 11.7057 19.75 9.88125 19.75 7.75C19.75 5.61875 20.3946 3.79427 21.6839 2.27656C22.9731 0.758854 24.5229 0 26.3333 0C28.1438 0 29.6936 0.758854 30.9828 2.27656C32.272 3.79427 32.9167 5.61875 32.9167 7.75C32.9167 9.88125 32.272 11.7057 30.9828 13.2234C29.6936 14.7411 28.1438 15.5 26.3333 15.5ZM46.0833 15.5C44.2729 15.5 42.7231 14.7411 41.4339 13.2234C40.1446 11.7057 39.5 9.88125 39.5 7.75C39.5 5.61875 40.1446 3.79427 41.4339 2.27656C42.7231 0.758854 44.2729 0 46.0833 0C47.8938 0 49.4436 0.758854 50.7328 2.27656C52.022 3.79427 52.6667 5.61875 52.6667 7.75C52.6667 9.88125 52.022 11.7057 50.7328 13.2234C49.4436 14.7411 47.8938 15.5 46.0833 15.5Z" fill="#2F1212"/>
</svg>
