<svg width="50" height="50" viewBox="0 0 50 50" fill="none" xmlns="http://www.w3.org/2000/svg">
<path d="M21.883 50C20.9999 50 20.2596 49.7005 19.6622 49.1016C19.0648 48.5026 18.766 47.7604 18.766 46.875V28.125L0.687569 5C-0.0916758 3.95833 -0.208563 2.86458 0.336909 1.71875C0.88238 0.572917 1.83046 0 3.18115 0H46.8189C48.1695 0 49.1176 0.572917 49.6631 1.71875C50.2086 2.86458 50.0917 3.95833 49.3124 5L31.234 28.125V46.875C31.234 47.7604 30.9352 48.5026 30.3378 49.1016C29.7404 49.7005 29.0001 50 28.117 50H21.883ZM25 25.9375L40.429 6.25H9.57096L25 25.9375Z" fill="black"/>
</svg>
